<svg xmlns="http://www.w3.org/2000/svg" viewBox="0 0 25.02 30"><g id="Layer_2" data-name="Layer 2"><g id="Layer_1-2" data-name="Layer 1"><path d="M19.94,2.6l-.14-.51a2.8,2.8,0,0,0-3.44-2L7,2.6Z"/><path d="M24.92,21.19l-2.25-8.42V24.7l.26-.07A2.81,2.81,0,0,0,24.92,21.19Z"/><path d="M10.2,18.33l0,0c4.44-1.8,6.15-5.95,4.2-7.74s-4.2.65-4.2.65h0S8,8.83,6,10.62,5.77,16.54,10.2,18.33Z"/><rect x="5.63" y="21.59" width="1.63" height="3.13" rx="0.82" transform="translate(-14.49 11.34) rotate(-45)"/><rect x="6.71" y="21.62" width="1.63" height="3.13" rx="0.82" transform="translate(18.6 1.47) rotate(45)"/><rect x="12.08" y="21.7" width="1.63" height="3.13" rx="0.82" transform="translate(-12.67 15.93) rotate(-45)"/><rect x="13.17" y="21.73" width="1.63" height="3.13" rx="0.82" transform="translate(20.57 -3.07) rotate(45)"/><rect x="7.78" y="21.63" width="1.63" height="3.13" rx="0.82" transform="translate(-13.88 12.87) rotate(-45)"/><rect x="8.86" y="21.66" width="1.63" height="3.13" rx="0.82" transform="translate(19.26 -0.04) rotate(45)"/><rect x="9.93" y="21.66" width="1.63" height="3.13" rx="0.82" transform="translate(-13.28 14.4) rotate(-45)"/><rect x="11.02" y="21.7" width="1.63" height="3.13" rx="0.82" transform="translate(19.91 -1.56) rotate(45)"/><path d="M18.11,4.6H2.32A2.32,2.32,0,0,0,0,6.91V27.68A2.32,2.32,0,0,0,2.32,30H18.11a2.32,2.32,0,0,0,2.32-2.32V6.91A2.32,2.32,0,0,0,18.11,4.6ZM17.9,26a1.18,1.18,0,0,1-1.18,1.18H3.7A1.18,1.18,0,0,1,2.52,26V8.56A1.18,1.18,0,0,1,3.7,7.38h13A1.18,1.18,0,0,1,17.9,8.56Z"/></g></g></svg>