<svg xmlns="http://www.w3.org/2000/svg" viewBox="0 0 29.26 25.44"><g id="Layer_2" data-name="Layer 2"><g id="Layer_1-2" data-name="Layer 1"><path d="M29.24,23.86a1.22,1.22,0,0,0-.07-.38.76.76,0,0,0-.06-.16c0-.05,0-.1,0-.14l-2.24-3.87a9.51,9.51,0,0,0,.79-3.78,9.86,9.86,0,0,0-6.9-9.38A9.91,9.91,0,0,0,1.64,9.91a9.59,9.59,0,0,0,.79,3.79L.19,17.56a.88.88,0,0,1,0,.15l-.05.15a1.27,1.27,0,0,0-.07.38.31.31,0,0,0,0,.08c0,.06,0,.11,0,.17a2.3,2.3,0,0,0,.06.28,1.2,1.2,0,0,0,.16.32.6.6,0,0,0,.09.13,1.42,1.42,0,0,0,.36.33l0,0h0a1.53,1.53,0,0,0,.52.18h0l.18,0H8.81a9.87,9.87,0,0,0,8.9,5.65c.22,0,.44,0,.65,0h9.43a1.16,1.16,0,0,0,.18,0h0a1.53,1.53,0,0,0,.52-.18h0s0,0,0,0a1.38,1.38,0,0,0,.36-.32,1,1,0,0,0,.09-.13,1.44,1.44,0,0,0,.16-.33,2.3,2.3,0,0,0,.06-.28c0-.05,0-.1,0-.16A.24.24,0,0,0,29.24,23.86ZM4,16.85,5.3,14.6h0l.46-.79a7,7,0,1,1,5.79,3.09c-.11,0-.22,0-.33,0H4Zm20.78,5.62H18c-.11,0-.22,0-.33,0a7,7,0,0,1-5.5-2.74,9.89,9.89,0,0,0,9.26-9.85c0-.07,0-.13,0-.2a6.9,6.9,0,0,1,2.05,9.7l.46.8h0l1.3,2.25Z"/><path d="M11.51,13.51v0c3.71-1.5,5.14-5,3.5-6.47s-3.5.55-3.5.55h0S9.64,5.57,8,7.06,7.8,12,11.51,13.51Z"/></g></g></svg>