<svg xmlns="http://www.w3.org/2000/svg" viewBox="0 0 30 23.28"><g id="Layer_2" data-name="Layer 2"><g id="Layer_1-2" data-name="Layer 1"><path d="M9.37,23.28A9.36,9.36,0,0,0,15,21.38,9.37,9.37,0,1,0,15,6.44,9.36,9.36,0,1,0,9.37,23.28ZM15,10.12a6.76,6.76,0,0,1,0,7.57,6.76,6.76,0,0,1,0-7.57Zm5.63-3a6.79,6.79,0,1,1-3.79,12.42,9.29,9.29,0,0,0,0-11.26A6.76,6.76,0,0,1,20.63,7.12Zm-11.26,0a6.76,6.76,0,0,1,3.79,1.16,9.29,9.29,0,0,0,0,11.26A6.79,6.79,0,1,1,9.37,7.12Z"/><path d="M14.82.84h0S13.38-.72,12.14.42,12,4.18,14.81,5.32h0c2.82-1.14,3.91-3.77,2.67-4.91S14.82.84,14.82.84Z"/></g></g></svg>